Coordinates
version=1
nRows=24
nColumns=22
inDegrees=yes

Units are S.I. units (second, meters, Newtons, ...)
If the header above contains a line with 'inDegrees', this indicates whether rotational values are in degrees (yes) or radians (no).

endheader
time	pelvis_tilt	pelvis_list	pelvis_rotation	pelvis_tx	pelvis_ty	pelvis_tz	hip_flexion_r	hip_adduction_r	hip_rotation_r	knee_angle_r	ankle_angle_r	subtalar_angle_r	hip_flexion_l	hip_adduction_l	hip_rotation_l	knee_angle_l	ankle_angle_l	subtalar_angle_l	lumbar_extension	lumbar_bending	lumbar_rotation
      1.42000000	     -2.28264761	      0.40767416	     -3.26885595	     -1.31145428	      0.99990352	     -0.59699019	     13.96545478	     -6.16887440	      0.52718986	    -34.60777368	     11.56745485	      3.19465378	     -1.38472340	      2.37416564	    -13.01962054	     -9.56035325	     14.44742185	     -3.05444497	     -4.65099844	     -5.03714817	     -0.46234895
      1.43000000	     -2.24432670	      0.54798955	     -3.46484535	     -1.31073070	      0.99954115	     -0.59802117	     15.23057290	     -6.26310092	      0.80899082	    -36.83926233	     10.80241663	      3.02988961	     -1.57482945	      2.62965394	    -13.16360553	     -9.37392247	     14.51243845	     -3.05415541	     -4.86059453	     -5.20855467	     -0.53402557
      1.44000000	     -2.20980877	      0.67381530	     -3.64994902	     -1.30987809	      0.99920763	     -0.59901302	     16.50789434	     -6.33412612	      1.01879416	    -39.03945514	     10.01961680	      2.71198155	     -1.78587821	      2.87157826	    -13.32006864	     -9.14738359	     14.55233027	     -3.04714626	     -5.05401931	     -5.36055551	     -0.63167711
      1.45000000	     -2.15774347	      0.78152274	     -3.81940046	     -1.30889695	      0.99894093	     -0.59996611	     17.75184179	     -6.38399764	      1.15022285	    -41.15278551	      9.27378054	      2.31065894	     -2.03017407	      3.09517183	    -13.46332484	     -8.90388415	     14.53658076	     -3.02865777	     -5.25706126	     -5.49289669	     -0.75355244
      1.46000000	     -2.12440055	      0.87230066	     -3.96417093	     -1.30779804	      0.99865772	     -0.60089751	     18.98964266	     -6.41883816	      1.19077685	    -43.14422352	      8.64674552	      1.80182913	     -2.25238875	      3.29560445	    -13.58294895	     -8.67785243	     14.55689864	     -3.01172526	     -5.42815424	     -5.60205762	     -0.90218824
      1.47000000	     -2.10003288	      0.93936083	     -4.07841080	     -1.30655819	      0.99838674	     -0.60180368	     20.18893065	     -6.43477614	      1.14013559	    -44.96350819	      8.17636399	      1.25195295	     -2.46698012	      3.46548819	    -13.67819624	     -8.46270673	     14.58949189	     -2.99132330	     -5.57898914	     -5.68097939	     -1.08042009
      1.48000000	     -2.08327031	      0.97889583	     -4.16066440	     -1.30518096	      0.99813854	     -0.60268469	     21.33713903	     -6.42898334	      1.00676958	    -46.57728361	      7.87110287	      0.72393311	     -2.67267140	      3.59942016	    -13.74523631	     -8.26563139	     14.62991126	     -2.96577635	     -5.71444170	     -5.72488815	     -1.28404341
      1.49000000	     -2.08074710	      0.98330961	     -4.21108003	     -1.30365236	      0.99791302	     -0.60352638	     22.43097450	     -6.39330742	      0.79218090	    -47.95805632	      7.72469309	      0.23978559	     -2.86313726	      3.68762269	    -13.78528631	     -8.08840823	     14.68503190	     -2.93722621	     -5.82682504	     -5.72660543	     -1.50399172
      1.50000000	     -2.08635339	      0.95069467	     -4.23199534	     -1.30198913	      0.99772737	     -0.60431609	     23.46038632	     -6.32301075	      0.51161301	    -49.08801558	      7.70146194	     -0.15663974	     -3.04217236	      3.72726742	    -13.79459884	     -7.93596186	     14.74372705	     -2.90557425	     -5.92919874	     -5.68656729	     -1.73553443
      1.51000000	     -2.09999821	      0.88079833	     -4.22461685	     -1.30018037	      0.99758434	     -0.60505982	     24.42098815	     -6.21750309	      0.17598469	    -49.95588588	      7.77116666	     -0.44964297	     -3.20996743	      3.71834665	    -13.77752591	     -7.81014770	     14.80249298	     -2.87260190	     -6.02018557	     -5.60168581	     -1.98015168
      1.52000000	     -2.11855213	      0.77723195	     -4.19373570	     -1.29823070	      0.99748800	     -0.60575431	     25.31150780	     -6.08088253	     -0.20624891	    -50.55924515	      7.89501281	     -0.64282948	     -3.36794832	      3.66473296	    -13.74107107	     -7.71419621	     14.86139351	     -2.84004222	     -6.10471847	     -5.47828138	     -2.22498046
      1.53000000	     -2.14271278	      0.64495403	     -4.13721732	     -1.29614847	      0.99742422	     -0.60641918	     26.13286668	     -5.91869925	     -0.62400978	    -50.89939680	      8.05259208	     -0.74437495	     -3.51575649	      3.57304507	    -13.68025983	     -7.64450450	     14.92616894	     -2.80712200	     -6.18557424	     -5.31999968	     -2.47133919
      1.54000000	     -2.16608158	      0.48478857	     -4.05800495	     -1.29392578	      0.99739702	     -0.60705876	     26.87682052	     -5.73156696	     -1.06738022	    -50.97911631	      8.22979896	     -0.76561867	     -3.65915355	      3.44475054	    -13.60027105	     -7.60352561	     14.99540155	     -2.77405890	     -6.26779532	     -5.12591196	     -2.72464528
      1.55000000	     -2.19055381	      0.29943160	     -3.95352486	     -1.29157270	      0.99738778	     -0.60768274	     27.54735089	     -5.52410053	     -1.53300393	    -50.80650750	      8.40329997	     -0.72892442	     -3.79301328	      3.28197422	    -13.50312447	     -7.59513065	     15.07680975	     -2.73886545	     -6.35169426	     -4.89974585	     -2.98184442
      1.56000000	     -2.20791430	      0.09335932	     -3.83009259	     -1.28909306	      0.99739321	     -0.60828397	     28.13769114	     -5.29975160	     -2.01069001	    -50.39037231	      8.55941994	     -0.64589636	     -3.92802137	      3.09092878	    -13.39583969	     -7.61393539	     15.17600087	     -2.70215695	     -6.44717474	     -4.64769202	     -3.24181944
      1.57000000	     -2.21369827	     -0.12531809	     -3.69570620	     -1.28649326	      0.99740245	     -0.60886471	     28.64758474	     -5.06563139	     -2.48908028	    -49.74280482	      8.69170468	     -0.52818667	     -4.07277929	      2.88240150	    -13.28639547	     -7.65025486	     15.28852751	     -2.66171127	     -6.56062865	     -4.37672478	     -3.49571321
      1.58000000	     -2.22390160	     -0.34130479	     -3.56657884	     -1.28378563	      0.99737615	     -0.60937273	     29.09965954	     -4.82247690	     -2.93986136	    -48.87648464	      8.83299378	     -0.41282240	     -4.20981519	      2.67118754	    -13.17987760	     -7.70416248	     15.37144662	     -2.62345959	     -6.67194511	     -4.11062161	     -3.72382362
      1.59000000	     -2.22128516	     -0.55886448	     -3.42925125	     -1.28095137	      0.99731784	     -0.60986988	     29.47866906	     -4.58812123	     -3.40182756	    -47.81096054	      8.90639883	     -0.26880421	     -4.36827022	      2.45789321	    -13.07906931	     -7.75511227	     15.50307093	     -2.58402169	     -6.80166196	     -3.83480847	     -3.95151320
      1.60000000	     -2.19450097	     -0.76412628	     -3.29521845	     -1.27798578	      0.99723286	     -0.61031471	     29.77433554	     -4.36555318	     -3.85031108	    -46.55712885	      8.93172729	     -0.09185379	     -4.56602609	      2.25798605	    -12.99091205	     -7.79303201	     15.67268382	     -2.53546338	     -6.96014816	     -3.57304132	     -4.16723571
      1.61000000	     -2.16890980	     -0.95319974	     -3.17690572	     -1.27489357	      0.99706779	     -0.61068617	     30.02201735	     -4.15259155	     -4.28406182	    -45.14226641	      8.95748456	      0.09931455	     -4.77382258	      2.07396161	    -12.91454367	     -7.82452124	     15.82577684	     -2.48103600	     -7.11615719	     -3.32620074	     -4.35019811
      1.62000000	     -2.15469894	     -1.11971164	     -3.06710185	     -1.27166507	      0.99680734	     -0.61097965	     30.22922226	     -3.95574168	     -4.70990292	    -43.57285849	      8.97486232	      0.30305489	     -4.98331942	      1.91178591	    -12.84830733	     -7.84471725	     15.97663551	     -2.43126647	     -7.25247612	     -3.10651890	     -4.50629787
      1.63000000	     -2.13363885	     -1.26606735	     -2.96149463	     -1.26828386	      0.99647098	     -0.61122639	     30.38056464	     -3.78228946	     -5.14646383	    -41.87600688	      8.98025720	      0.54218349	     -5.22088921	      1.77183936	    -12.79200939	     -7.84176871	     16.13649656	     -2.37782786	     -7.39149778	     -2.90703962	     -4.63918727
      1.64000000	     -2.11377459	     -1.39910151	     -2.85773974	     -1.26474467	      0.99605092	     -0.61140315	     30.48564720	     -3.62608084	     -5.61404475	    -40.07012560	      8.97393898	      0.81317627	     -5.47605010	      1.64320418	    -12.73638719	     -7.82226150	     16.30605613	     -2.32409667	     -7.51949348	     -2.72551593	     -4.75475782
      1.65000000	     -2.07548207	     -1.51303224	     -2.75489179	     -1.26103406	      0.99557497	     -0.61153835	     30.52799713	     -3.49189813	     -6.10225503	    -38.18001120	      8.96744609	      1.13703126	     -5.78280142	      1.53766177	    -12.69398737	     -7.75859900	     16.48221844	     -2.25346490	     -7.65907132	     -2.56108450	     -4.86526825
